In Istanbul, retired CIA operative Bryan Mills and his wife are taken hostage by the father of a kidnapper Mills killed while rescuing his daughter.

Liam Neeson, 
Famke Janssen, 
Maggie Grace, 
Rade Serbedzija


Taken 2 2012 TRUE 720p TS OWN SOURCE READNFO XviD - MATiNE
iMDB URL: http://www.imdb.com/title/tt1397280/
Theatre Date: Oct 05, 2012 Source: 1080p MATiNE CAM
Release Date: Oct 16, 2012 Audio: MATiNE LiNE
Runtime: 01h:26m:23s Format: XviD
MPAA Rating: PG-13 Disc's...CD1: 2.76gB
iMDB Rating: 6.7/10

Format                           : AVI
Format/Info                      : Audio Video Interleave
Format profile                   : OpenDML
File size                        : 2.43 GiB
Duration                         : 1h 26mn
Overall bit rate                 : 4 027 Kbps
Writing library                  : VirtualDub build 32842/release

Video
ID                               : 0
Format                           : MPEG-4 Visual
Format profile                   : Advanced Simple@L5
Format settings, BVOP            : 2
Format settings, QPel            : No
Format settings, GMC             : No warppoints
Format settings, Matrix          : Default (H.263)
Muxing mode                      : Packed bitstream
Codec ID                         : XVID
Codec ID/Hint                    : XviD
Duration                         : 1h 26mn
Bit rate                         : 3 631 Kbps
Width                            : 1 280 pixels
Height                           : 544 pixels
Display aspect ratio             : 2.35:1
Frame rate                       : 25.000 fps
Color space                      : YUV
Chroma subsampling               : 4:2:0
Bit depth                        : 8 bits
Scan type                        : Progressive
Compression mode                 : Lossy
Bits/(Pixel*Frame)               : 0.209
Stream size                      : 2.19 GiB (90%)
Writing library                  : XviD 64

Audio
ID                               : 1
Format                           : AC-3
Format/Info                      : Audio Coding 3
Mode extension                   : CM (complete main)
Codec ID                         : 2000
Duration                         : 1h 26mn
Bit rate mode                    : Constant
Bit rate                         : 384 Kbps
Channel(s)                       : 2 channels
Channel positions                : Front: L R
Sampling rate                    : 44.1 KHz
Bit depth                        : 16 bits
Compression mode                 : Lossy
Stream size                      : 237 MiB (10%)
Alignment                        : Split accross interleaves
Interleave, duration             : 35 ms (0.87 video frame)

 
http://i.imgur.com/fJi2g.png 
http://i.imgur.com/p00yn.png 
http://i.imgur.com/eoi0D.png 
http://i.imgur.com/EVlrV.png




